<svg width="41" height="42" viewBox="0 0 41 42" fill="none" xmlns="http://www.w3.org/2000/svg">
<path d="M4 0.403809H37C39.21 0.403809 41 2.19381 41 4.40381V37.4038C41 39.6138 39.21 41.4038 37 41.4038H4C1.79 41.4038 0 39.6138 0 37.4038V4.40381C0 2.19381 1.79 0.403809 4 0.403809Z" fill="#3B5998"/>
<path d="M27.7101 24.2639H23.11V41.1639H16.11V24.2639H12.8V18.3239H16.11V14.5039C16.11 11.7439 17.4 7.46387 23.15 7.46387H28.31V13.2239H24.53C23.74 13.1939 23.08 13.8139 23.05 14.5939C23.05 14.6739 23.05 14.7539 23.06 14.8339V18.3339H28.26L27.7101 24.2639Z" fill="white"/>
</svg>
