<svg width="42" height="42" viewBox="0 0 42 42" fill="none" xmlns="http://www.w3.org/2000/svg">
<path d="M4.00195 0.403809H37.002C39.212 0.403809 41.0019 2.19381 41.0019 4.40381V37.4038C41.0019 39.6138 39.212 41.4038 37.002 41.4038H4.00195C1.79195 41.4038 0.00195312 39.6138 0.00195312 37.4038V4.40381C0.00195312 2.19381 1.79195 0.403809 4.00195 0.403809Z" fill="url(#paint0_linear)"/>
<path d="M20.352 6.82374C14.572 6.82374 9.08199 6.31374 6.98199 11.6937C6.11199 13.9137 6.24199 16.8037 6.24199 20.9337C6.24199 24.5637 6.12199 27.9737 6.98199 30.1737C9.07199 35.5637 14.612 35.0437 20.342 35.0437C25.882 35.0437 31.582 35.6237 33.712 30.1737C34.582 27.9337 34.452 25.0837 34.452 20.9337C34.452 15.4237 34.752 11.8637 32.082 9.19374C29.382 6.48374 25.722 6.82374 20.352 6.82374ZM19.092 9.36374C31.152 9.34374 32.682 8.00374 31.842 26.6237C31.542 33.2137 26.522 32.4837 20.362 32.4837C9.12198 32.4837 8.80199 32.1637 8.80199 20.9137C8.79199 9.55374 9.682 9.37374 19.092 9.36374ZM27.892 11.7137C26.962 11.7137 26.202 12.4737 26.202 13.4037C26.202 14.3337 26.962 15.0937 27.892 15.0937C28.822 15.0937 29.582 14.3337 29.582 13.4037C29.582 12.4737 28.822 11.7137 27.892 11.7137ZM20.352 13.6937C16.352 13.6937 13.112 16.9337 13.112 20.9337C13.112 24.9337 16.352 28.1737 20.352 28.1737C24.352 28.1737 27.592 24.9337 27.592 20.9337C27.602 16.9337 24.362 13.6937 20.352 13.6937C20.362 13.6937 20.362 13.6937 20.352 13.6937ZM20.352 16.2337C26.572 16.2337 26.582 25.6437 20.352 25.6437C14.122 25.6437 14.132 16.2337 20.352 16.2337Z" fill="white"/>
<defs>
<linearGradient id="paint0_linear" x1="-0.000246875" y1="20.8998" x2="40.9997" y2="20.8998" gradientUnits="userSpaceOnUse">
<stop stop-color="#FFDD55"/>
<stop offset="0.5" stop-color="#FF543E"/>
<stop offset="1" stop-color="#C837AB"/>
</linearGradient>
</defs>
</svg>
