<svg width="42" height="42" viewBox="0 0 42 42" fill="none" xmlns="http://www.w3.org/2000/svg">
<path d="M4.46606 0.0209961H37.5761C39.7861 0.0209961 41.5761 1.811 41.5761 4.021V37.131C41.5761 39.341 39.7861 41.131 37.5761 41.131H4.46606C2.25606 41.131 0.466064 39.341 0.466064 37.131V4.021C0.466064 1.811 2.25606 0.0209961 4.46606 0.0209961Z" fill="#0077B7"/>
<path d="M9.06613 31.7409H13.8461V15.7909H9.06613V31.7409ZM27.7061 15.2409C25.4261 15.1609 23.2461 16.1709 21.8361 17.9609V15.7409H17.0361V31.7409H21.8361V23.0909C21.9361 21.0809 23.5961 19.4909 25.6061 19.4809C27.7061 19.4809 28.2261 21.2609 28.2261 23.0509V31.7509H33.0061V22.6909C33.0061 16.4009 30.0261 15.2409 27.7061 15.2409ZM11.4361 14.2009C12.7661 14.2009 13.8361 13.1309 13.8361 11.8009C13.8361 10.4709 12.7661 9.40088 11.4361 9.40088C10.1061 9.40088 9.03613 10.4709 9.03613 11.8009C9.03613 13.1309 10.1061 14.2009 11.4361 14.2009Z" fill="#F1F2F2"/>
</svg>
