<svg width="20" height="20" viewBox="0 0 20 20" fill="none" xmlns="http://www.w3.org/2000/svg">
<g clip-path="url(#clip0)">
<path d="M7.29163 14.6763V18.5413C7.29163 18.8113 7.46496 19.0504 7.72163 19.1354C7.78579 19.1563 7.85163 19.1663 7.91663 19.1663C8.11163 19.1663 8.29996 19.0746 8.41996 18.9113L10.6808 15.8346L7.29163 14.6763Z" fill="white"/>
<path d="M19.7371 0.114931C19.5454 -0.0209027 19.2937 -0.0392361 19.0854 0.0699306L0.335382 9.8616C0.113715 9.97743 -0.0171179 10.2141 0.00121545 10.4633C0.0203821 10.7133 0.186216 10.9266 0.422049 11.0074L5.63455 12.7891L16.7354 3.29743L8.14538 13.6466L16.8812 16.6324C16.9462 16.6541 17.0146 16.6658 17.0829 16.6658C17.1962 16.6658 17.3087 16.6349 17.4079 16.5749C17.5662 16.4783 17.6737 16.3158 17.7012 16.1333L19.9929 0.716597C20.0271 0.483264 19.9287 0.251597 19.7371 0.114931Z" fill="white"/>
</g>
<defs>
<clipPath id="clip0">
<rect width="20" height="20" fill="white"/>
</clipPath>
</defs>
</svg>
