<svg width="20" height="20" viewBox="0 0 20 20" fill="none" xmlns="http://www.w3.org/2000/svg">
<g clip-path="url(#clip0)">
<path d="M19.2336 4.08383C18.4662 3.02786 17.1223 2.07473 15.4494 1.40012C13.7855 0.729183 11.8537 0.358129 10.0096 0.355512C8.16531 0.350902 6.23105 0.718129 4.5648 1.38383C2.88902 2.0534 1.54191 3.00239 0.771674 4.05586C0.0319082 5.06766 -0.181295 6.15825 0.155072 7.20973C0.373314 7.8918 1.00984 8.35079 1.73937 8.35184L4.23745 8.35418C4.23831 8.35418 4.23913 8.35418 4.23995 8.35418C4.73808 8.35415 5.20609 8.1361 5.52413 7.75567C5.83882 7.3793 5.96913 6.88743 5.88179 6.4061C5.87921 6.39196 5.87613 6.37793 5.87257 6.36399L5.74113 5.85297C6.46902 5.50567 8.11824 4.83465 10.0019 4.84532C11.8841 4.85497 13.5322 5.52559 14.261 5.87305L14.1274 6.38118C14.1236 6.39559 14.1204 6.41004 14.1177 6.42461C14.029 6.90567 14.158 7.3979 14.4715 7.77516C14.7891 8.15719 15.2574 8.37665 15.7568 8.37739L18.2549 8.37973C18.2557 8.37973 18.2566 8.37973 18.2574 8.37973C18.9855 8.37969 19.6223 7.92286 19.8421 7.24219C20.1817 6.19098 19.9713 5.09887 19.2336 4.08383Z" fill="white"/>
<path d="M15.6485 10.93L13.7856 8.9739C13.6729 8.85562 13.5168 8.7887 13.3535 8.7887H12.1496V7.97531C12.1496 7.64574 11.8824 7.37851 11.5528 7.37851C11.2231 7.37851 10.956 7.6457 10.956 7.97531V8.7887H9.04494V7.97531C9.04494 7.64574 8.77775 7.37851 8.44814 7.37851C8.11854 7.37851 7.85135 7.6457 7.85135 7.97531V8.7887H6.64748C6.48416 8.7887 6.32795 8.85566 6.21533 8.9739L4.35244 10.93C2.89182 12.4636 2.0874 14.4746 2.0874 16.5925V19.0477C2.0874 19.3773 2.35459 19.6445 2.6842 19.6445H17.3167C17.6463 19.6445 17.9135 19.3773 17.9135 19.0477V16.5925C17.9135 14.4746 17.1091 12.4637 15.6485 10.93ZM10.0004 17.463C8.27818 17.463 6.87705 16.0619 6.87705 14.3396C6.87705 12.6174 8.27822 11.2162 10.0004 11.2162C11.7227 11.2162 13.1238 12.6174 13.1238 14.3396C13.1238 16.0619 11.7227 17.463 10.0004 17.463Z" fill="white"/>
<path d="M10.0001 12.4098C8.93598 12.4098 8.07031 13.2755 8.07031 14.3396C8.07031 15.4037 8.93602 16.2694 10.0001 16.2694C11.0642 16.2694 11.9299 15.4037 11.9299 14.3396C11.9299 13.2755 11.0642 12.4098 10.0001 12.4098Z" fill="white"/>
</g>
<defs>
<clipPath id="clip0">
<rect width="20" height="20" fill="white"/>
</clipPath>
</defs>
</svg>
