<svg width="43" height="42" viewBox="0 0 43 42" fill="none" xmlns="http://www.w3.org/2000/svg">
<path d="M4.99805 0.400879H38.998C41.208 0.400879 42.998 2.19088 42.998 4.40088V37.4009C42.998 39.6109 41.208 41.4009 38.998 41.4009H4.99805C2.78805 41.4009 0.998047 39.6109 0.998047 37.4009V4.40088C0.998047 2.19088 2.78805 0.400879 4.99805 0.400879Z" fill="#26A6D1"/>
<path d="M34.858 14.7809C33.898 15.2009 32.878 15.4709 31.828 15.5909C32.918 14.9609 33.748 13.9509 34.148 12.7609C33.108 13.3609 31.978 13.7809 30.798 14.0009C29.788 12.9609 28.398 12.3809 26.948 12.3809C24.078 12.3409 21.718 14.6309 21.678 17.4909C21.678 17.8809 21.718 18.2709 21.818 18.6609C17.608 18.4709 13.678 16.5309 10.958 13.3209C10.488 14.1009 10.248 14.9809 10.248 15.8909C10.258 17.6209 11.138 19.2209 12.588 20.1509C11.748 20.1309 10.938 19.9109 10.198 19.5109V19.5809C10.228 22.0509 11.998 24.1509 14.428 24.6009C13.978 24.7209 13.508 24.7809 13.038 24.7809C12.708 24.7809 12.378 24.7509 12.048 24.6909C12.768 26.8009 14.748 28.2209 16.968 28.2409C15.088 29.6709 12.788 30.4409 10.418 30.4309C9.99797 30.4309 9.57796 30.4109 9.15796 30.3609C11.578 31.8709 14.378 32.6609 17.238 32.6609C25.338 32.8409 32.048 26.4309 32.238 18.3309C32.238 18.2509 32.238 18.1809 32.238 18.1009L32.218 17.4409C33.258 16.7009 34.148 15.8109 34.858 14.7809Z" fill="white"/>
</svg>
