<svg width="13" height="19" viewBox="0 0 13 19" fill="none" xmlns="http://www.w3.org/2000/svg">
<path d="M6.49997 0C3.00783 0 0.166626 2.84121 0.166626 6.33335C0.166626 7.38169 0.428729 8.42112 0.926997 9.34306L6.15363 18.7959C6.22321 18.9219 6.3558 19 6.49997 19C6.64414 19 6.77673 18.9219 6.84631 18.7959L12.0749 9.33995C12.5712 8.42112 12.8333 7.38165 12.8333 6.33331C12.8333 2.84121 9.99211 0 6.49997 0ZM6.49997 9.5C4.7539 9.5 3.33332 8.07942 3.33332 6.33335C3.33332 4.58728 4.7539 3.16669 6.49997 3.16669C8.24604 3.16669 9.66663 4.58728 9.66663 6.33335C9.66663 8.07942 8.24604 9.5 6.49997 9.5Z" fill="#219AF4"/>
</svg>
