<svg width="19" height="19" viewBox="0 0 19 19" fill="none" xmlns="http://www.w3.org/2000/svg">
<path d="M18.631 15.1081L16.5247 13.7037L14.6522 12.4556C14.2908 12.2152 13.8052 12.294 13.5384 12.6365L12.3798 14.126C12.1309 14.4492 11.6831 14.5421 11.3262 14.3445C10.54 13.9071 9.61035 13.4954 7.55904 11.4414C5.50773 9.38749 5.09334 8.46043 4.65601 7.67424C4.4584 7.31733 4.55129 6.86961 4.87451 6.62076L6.36402 5.4621C6.70643 5.19536 6.78528 4.70972 6.54485 4.34832L5.3351 2.5335L3.89242 0.369457C3.64687 0.00111404 3.15532 -0.109471 2.7757 0.118193L1.11188 1.11635C0.662234 1.38127 0.331705 1.80906 0.188761 2.31103C-0.266232 3.96992 -0.357965 7.62934 5.50673 13.494C11.3714 19.3587 15.0305 19.2667 16.6894 18.8117C17.1914 18.6688 17.6192 18.3382 17.8841 17.8886L18.8822 16.2248C19.1099 15.8451 18.9994 15.3536 18.631 15.1081Z" fill="#219AF4"/>
<path d="M10.8101 2.94813C13.8843 2.95154 16.3756 5.44281 16.379 8.51703C16.379 8.69794 16.5257 8.84463 16.7066 8.84463C16.8875 8.84463 17.0342 8.69797 17.0342 8.51703C17.0304 5.08115 14.246 2.29675 10.8101 2.29297C10.6292 2.29297 10.4825 2.43962 10.4825 2.62057C10.4825 2.80144 10.6292 2.94813 10.8101 2.94813Z" fill="#219AF4"/>
<path d="M10.8101 4.9135C12.7993 4.91583 14.4112 6.52777 14.4135 8.51688C14.4135 8.69779 14.5602 8.84448 14.7411 8.84448C14.922 8.84448 15.0687 8.69783 15.0687 8.51688C15.066 6.16607 13.161 4.26101 10.8101 4.2583C10.6292 4.2583 10.4825 4.40496 10.4825 4.5859C10.4825 4.76684 10.6292 4.9135 10.8101 4.9135Z" fill="#219AF4"/>
<path d="M10.8101 6.87928C11.7143 6.88036 12.4469 7.61304 12.448 8.5172C12.448 8.6981 12.5947 8.84479 12.7756 8.84479C12.9565 8.84479 13.1032 8.69814 13.1032 8.5172C13.1018 7.25137 12.076 6.22557 10.8101 6.22412C10.6292 6.22412 10.4825 6.37078 10.4825 6.55172C10.4825 6.73262 10.6292 6.87928 10.8101 6.87928Z" fill="#219AF4"/>
</svg>
