<svg width="19" height="15" viewBox="0 0 19 15" fill="none" xmlns="http://www.w3.org/2000/svg">
<path d="M18.986 2.09311C18.986 2.0714 19.0009 2.05027 18.9999 2.02881L13.2018 7.61564L18.993 13.024C18.9964 12.9854 18.986 12.9464 18.986 12.9069V2.09311Z" fill="#219AF4"/>
<path d="M12.3167 8.4751L9.94968 10.7524C9.82991 10.8677 9.67521 10.9254 9.52044 10.9254C9.36888 10.9254 9.21732 10.8701 9.09837 10.7593L6.73784 8.55963L0.908813 14.1782C1.05055 14.2291 1.20268 14.2686 1.362 14.2686H17.679C17.9155 14.2686 18.1374 14.1966 18.3303 14.0891L12.3167 8.4751Z" fill="#219AF4"/>
<path d="M9.51379 9.45393L18.3626 0.929979C18.1622 0.810863 17.929 0.730957 17.6791 0.730957H1.36212C1.03664 0.730957 0.738393 0.857338 0.506104 1.05009L9.51379 9.45393Z" fill="#219AF4"/>
<path d="M0 2.30078V12.9068C0 13.0286 0.0279837 13.146 0.0583612 13.2582L5.81507 7.71459L0 2.30078Z" fill="#219AF4"/>
</svg>
