<svg width="20" height="20" viewBox="0 0 20 20" fill="none" xmlns="http://www.w3.org/2000/svg">
<path d="M1.21094 7.93799V18.2422C1.21094 18.5128 1.27746 18.7662 1.38711 18.9953L6.8277 13.5547C4.74281 11.4699 3.37852 10.1055 1.21094 7.93799Z" fill="#219AF4"/>
<path d="M13.1722 13.5547L18.6128 18.9953C18.7225 18.7662 18.789 18.5128 18.789 18.2422V7.93799C16.7088 10.0181 15.2799 11.4471 13.1722 13.5547Z" fill="#219AF4"/>
<path d="M10 5.9375C9.67727 5.9375 9.41406 6.20016 9.41406 6.52344C9.41406 6.84672 9.67727 7.10938 10 7.10938C10.4058 7.10938 10.5134 6.83113 10.5778 6.48309C10.5559 6.17961 10.3084 5.9375 10 5.9375Z" fill="#219AF4"/>
<path d="M12.1012 14.1406H7.8989L2.2157 19.8238C2.44488 19.9335 2.6982 20 2.96878 20H17.0313C17.3019 20 17.5552 19.9335 17.7844 19.8238L12.1012 14.1406Z" fill="#219AF4"/>
<path d="M1.79688 6.8667L3.55469 8.62451V5.10889L1.79688 6.8667Z" fill="#219AF4"/>
<path d="M16.4453 5.10889V8.62451L18.2031 6.8667L16.4453 5.10889Z" fill="#219AF4"/>
<path d="M14.5227 0H5.36742C5.01348 0 4.72656 0.286914 4.72656 0.640859V9.79645L7.89887 12.9688H12.1011L15.2734 9.79645V0.750742C15.2734 0.336133 14.9373 0 14.5227 0ZM11.1714 7.82441C10.8598 8.10531 10.4516 8.28125 10 8.28125C9.0307 8.28125 8.24219 7.49273 8.24219 6.52344C8.24219 5.55414 9.0307 4.76562 10 4.76562C10.9693 4.76562 11.7578 5.55414 11.7578 6.52344C11.7578 7.29797 12.9297 7.29797 12.9297 6.52344C12.9297 4.90809 11.6159 3.59375 10 3.59375C8.3841 3.59375 7.07031 4.90809 7.07031 6.52344C7.07031 7.52594 7.57613 8.44891 8.42414 8.9925C9.29391 9.54867 10.3708 9.60133 11.3813 9.13727C12.0798 8.81273 12.5768 9.87754 11.8711 10.2016C10.528 10.8195 9.03629 10.7757 7.79242 9.97898C6.60684 9.2191 5.89844 7.92762 5.89844 6.52344C5.89844 4.26207 7.73863 2.42188 10 2.42188C12.2614 2.42188 14.1016 4.26207 14.1016 6.52344C14.1016 8.02969 12.3106 8.85301 11.1714 7.82441Z" fill="#219AF4"/>
</svg>
