<svg width="20" height="20" viewBox="0 0 20 20" fill="none" xmlns="http://www.w3.org/2000/svg">
<g clip-path="url(#clip0)">
<path d="M19.2336 4.08383C18.4662 3.02786 17.1223 2.07473 15.4494 1.40012C13.7855 0.729183 11.8537 0.358129 10.0096 0.355512C8.16531 0.350902 6.23105 0.718129 4.5648 1.38383C2.88902 2.0534 1.54191 3.00239 0.771674 4.05586C0.0319082 5.06766 -0.181295 6.15825 0.155072 7.20973C0.373314 7.8918 1.00984 8.35079 1.73937 8.35184L4.23745 8.35418C4.23831 8.35418 4.23913 8.35418 4.23995 8.35418C4.73808 8.35415 5.20609 8.1361 5.52413 7.75567C5.83882 7.3793 5.96913 6.88743 5.88179 6.4061C5.87921 6.39196 5.87613 6.37793 5.87257 6.36399L5.74113 5.85297C6.46902 5.50567 8.11824 4.83465 10.0019 4.84532C11.8841 4.85497 13.5322 5.52559 14.261 5.87305L14.1274 6.38118C14.1236 6.39559 14.1204 6.41004 14.1177 6.42461C14.029 6.90567 14.158 7.3979 14.4715 7.77516C14.7891 8.15719 15.2574 8.37665 15.7568 8.37739L18.2549 8.37973C18.2557 8.37973 18.2566 8.37973 18.2574 8.37973C18.9855 8.37969 19.6223 7.92286 19.8421 7.24219C20.1817 6.19098 19.9713 5.09887 19.2336 4.08383Z" fill="#219AF4"/>
<path d="M15.6483 10.9299L13.7854 8.97381C13.6727 8.85553 13.5165 8.78861 13.3532 8.78861H12.1493V7.97521C12.1493 7.64564 11.8821 7.37842 11.5525 7.37842C11.2229 7.37842 10.9557 7.64561 10.9557 7.97521V8.78861H9.0447V7.97521C9.0447 7.64564 8.77751 7.37842 8.4479 7.37842C8.11829 7.37842 7.8511 7.64561 7.8511 7.97521V8.78861H6.64724C6.48392 8.78861 6.3277 8.85557 6.21509 8.97381L4.3522 10.9299C2.89157 12.4635 2.08716 14.4746 2.08716 16.5924V19.0476C2.08716 19.3772 2.35435 19.6444 2.68396 19.6444H17.3165C17.6461 19.6444 17.9133 19.3772 17.9133 19.0476V16.5924C17.9133 14.4746 17.1089 12.4636 15.6483 10.9299ZM10.0002 17.4629C8.27794 17.4629 6.87681 16.0618 6.87681 14.3395C6.87681 12.6173 8.27798 11.2161 10.0002 11.2161C11.7224 11.2161 13.1236 12.6173 13.1236 14.3395C13.1236 16.0618 11.7224 17.4629 10.0002 17.4629Z" fill="#219AF4"/>
<path d="M10.0002 12.4099C8.9361 12.4099 8.07043 13.2756 8.07043 14.3397C8.07043 15.4039 8.93614 16.2696 10.0002 16.2696C11.0643 16.2696 11.93 15.4039 11.93 14.3397C11.93 13.2757 11.0643 12.4099 10.0002 12.4099Z" fill="#219AF4"/>
</g>
<defs>
<clipPath id="clip0">
<rect width="20" height="20" fill="white"/>
</clipPath>
</defs>
</svg>
