<svg width="20" height="20" viewBox="0 0 20 20" fill="none" xmlns="http://www.w3.org/2000/svg">
<path d="M10.0013 0C7.14418 0 4.80859 2.33559 4.80859 5.19275C4.80859 8.04991 7.14418 10.3855 10.0013 10.3855C12.8585 10.3855 15.1941 8.04991 15.1941 5.19275C15.1941 2.33559 12.8585 0 10.0013 0Z" fill="#219AF4"/>
<path d="M18.913 14.5353C18.7769 14.1951 18.5955 13.8777 18.3915 13.5829C17.3484 12.0409 15.7384 11.0205 13.9244 10.7711C13.6976 10.7484 13.4482 10.7937 13.2668 10.9298C12.3144 11.6328 11.1806 11.9956 10.0014 11.9956C8.82228 11.9956 7.68851 11.6328 6.73612 10.9298C6.5547 10.7937 6.30526 10.7257 6.07853 10.7711C4.26446 11.0205 2.63183 12.0409 1.61143 13.5829C1.40735 13.8777 1.22592 14.2178 1.0899 14.5353C1.02189 14.6713 1.04454 14.8301 1.11256 14.9661C1.29398 15.2836 1.52071 15.6011 1.72479 15.8732C2.04224 16.304 2.38239 16.6895 2.76789 17.0523C3.08534 17.3697 3.44815 17.6645 3.81099 17.9593C5.60236 19.2972 7.75657 20.0001 9.97879 20.0001C12.201 20.0001 14.3552 19.2972 16.1466 17.9593C16.5094 17.6872 16.8722 17.3697 17.1897 17.0523C17.5525 16.6895 17.9153 16.304 18.2328 15.8732C18.4595 15.5784 18.6636 15.2836 18.845 14.9661C18.9583 14.8301 18.981 14.6713 18.913 14.5353Z" fill="#219AF4"/>
</svg>
